<svg width="456" height="108" viewBox="0 0 456 108" fill="none" xmlns="http://www.w3.org/2000/svg">
<rect width="456" height="108" fill="#E5E5E5"/>
<path d="M2.5 2.5H453.5V105.5H2.5V2.5Z" fill="white" stroke="#D74F22" stroke-width="5"/>
<path d="M123.888 90H101.52C100.688 90 100.272 89.584 100.272 88.752V84.048C100.272 83.216 100.688 82.8 101.52 82.8H108.816V28.272H90.672V38.448C90.672 39.344 90.224 39.792 89.328 39.792H83.952C83.056 39.792 82.608 39.344 82.608 38.448V22.32C82.608 21.488 83.056 21.072 83.952 21.072H141.84C142.736 21.072 143.184 21.488 143.184 22.32V38.448C143.184 39.344 142.736 39.792 141.84 39.792H136.368C135.536 39.792 135.12 39.344 135.12 38.448V28.272H117.168V82.8H123.888C124.784 82.8 125.232 83.216 125.232 84.048V88.752C125.232 89.584 124.784 90 123.888 90ZM166.201 90H147.865C147.033 90 146.617 89.616 146.617 88.848V84.72C146.617 83.952 147.033 83.568 147.865 83.568H153.145V49.2H147.865C147.033 49.2 146.617 48.816 146.617 48.048V43.92C146.617 43.152 147.033 42.768 147.865 42.768H159.097C159.929 42.768 160.345 43.152 160.345 43.92V55.92H160.633C160.825 54.896 161.497 53.488 162.649 51.696C163.801 49.904 165.049 48.432 166.393 47.28C167.801 46.064 169.785 44.976 172.345 44.016C174.969 43.056 177.913 42.576 181.177 42.576C182.009 42.576 182.425 42.992 182.425 43.824V48.912C182.425 49.744 182.009 50.16 181.177 50.16H179.161C173.657 50.16 169.273 51.92 166.009 55.44C162.745 58.96 161.113 62.96 161.113 67.44V83.568H166.201C167.033 83.568 167.449 83.952 167.449 84.72V88.848C167.449 89.616 167.033 90 166.201 90ZM233.784 90H225.432C222.68 90 221.304 88.656 221.304 85.968V81.072H221.112C216.44 87.536 210.2 90.768 202.392 90.768C197.784 90.768 194.008 89.584 191.064 87.216C188.12 84.784 186.648 81.52 186.648 77.424C186.648 72.176 188.92 68.336 193.464 65.904C198.072 63.408 204.376 62.16 212.376 62.16H220.44V61.008C220.44 53.008 216.28 49.008 207.96 49.008C204.056 49.008 201.24 49.392 199.512 50.16C197.784 50.864 196.536 51.44 195.768 51.888C195.064 52.336 194.52 52.688 194.136 52.944C193.176 53.712 192.472 53.776 192.024 53.136L189.336 49.776C188.888 49.264 188.952 48.752 189.528 48.24C190.616 46.832 192.856 45.456 196.248 44.112C199.64 42.768 203.64 42.096 208.248 42.096C221.688 42.096 228.408 48.496 228.408 61.296V83.568H233.784C234.552 83.568 234.936 83.952 234.936 84.72V88.848C234.936 89.616 234.552 90 233.784 90ZM220.44 67.92H212.856C209.144 67.92 206.072 68.112 203.64 68.496C201.208 68.88 199.128 69.712 197.4 70.992C195.736 72.272 194.904 74.032 194.904 76.272C194.904 78.512 195.8 80.368 197.592 81.84C199.448 83.248 201.848 83.952 204.792 83.952C211 83.952 216.216 81.2 220.44 75.696V67.92ZM267.921 90H261.489C260.849 90 260.401 89.904 260.145 89.712C259.889 89.456 259.633 88.976 259.377 88.272L244.113 49.2H238.737C237.969 49.2 237.585 48.816 237.585 48.048V43.92C237.585 43.152 237.969 42.768 238.737 42.768H256.593C257.361 42.768 257.745 43.152 257.745 43.92V48.048C257.745 48.816 257.361 49.2 256.593 49.2H252.369L264.657 81.552H264.849L277.329 49.2H273.009C272.241 49.2 271.857 48.816 271.857 48.048V43.92C271.857 43.152 272.241 42.768 273.009 42.768H290.865C291.697 42.768 292.113 43.152 292.113 43.92V48.048C292.113 48.816 291.697 49.2 290.865 49.2H285.585L270.129 88.272C269.745 89.424 269.009 90 267.921 90ZM316.295 90H297.959C297.127 90 296.711 89.616 296.711 88.848V84.72C296.711 83.952 297.127 83.568 297.959 83.568H303.239V49.2H297.959C297.127 49.2 296.711 48.816 296.711 48.048V43.92C296.711 43.152 297.127 42.768 297.959 42.768H310.055C310.823 42.768 311.207 43.152 311.207 43.92V83.568H316.295C317.127 83.568 317.543 83.952 317.543 84.72V88.848C317.543 89.616 317.127 90 316.295 90ZM310.823 28.56C311.911 29.648 312.455 30.928 312.455 32.4C312.455 33.872 311.911 35.12 310.823 36.144C309.799 37.168 308.551 37.68 307.079 37.68C305.607 37.68 304.327 37.168 303.239 36.144C302.215 35.12 301.703 33.872 301.703 32.4C301.703 30.928 302.215 29.648 303.239 28.56C304.327 27.472 305.607 26.928 307.079 26.928C308.551 26.928 309.799 27.472 310.823 28.56ZM371.972 90H363.62C360.868 90 359.492 88.656 359.492 85.968V81.072H359.3C354.628 87.536 348.388 90.768 340.58 90.768C335.972 90.768 332.196 89.584 329.252 87.216C326.308 84.784 324.836 81.52 324.836 77.424C324.836 72.176 327.108 68.336 331.652 65.904C336.26 63.408 342.564 62.16 350.564 62.16H358.628V61.008C358.628 53.008 354.468 49.008 346.148 49.008C342.244 49.008 339.428 49.392 337.7 50.16C335.972 50.864 334.724 51.44 333.956 51.888C333.252 52.336 332.708 52.688 332.324 52.944C331.364 53.712 330.66 53.776 330.212 53.136L327.523 49.776C327.076 49.264 327.14 48.752 327.716 48.24C328.804 46.832 331.044 45.456 334.436 44.112C337.828 42.768 341.828 42.096 346.436 42.096C359.876 42.096 366.596 48.496 366.596 61.296V83.568H371.972C372.74 83.568 373.124 83.952 373.124 84.72V88.848C373.124 89.616 372.74 90 371.972 90ZM358.628 67.92H351.044C347.332 67.92 344.26 68.112 341.828 68.496C339.396 68.88 337.316 69.712 335.588 70.992C333.924 72.272 333.092 74.032 333.092 76.272C333.092 78.512 333.988 80.368 335.78 81.84C337.636 83.248 340.036 83.952 342.98 83.952C349.188 83.952 354.404 81.2 358.628 75.696V67.92Z" fill="#224FD7"/>
</svg>
